<svg width="148" height="36" viewBox="0 0 148 36" fill="none" xmlns="http://www.w3.org/2000/svg">
<g filter="url(#filter0_d_415_3)">
<path d="M21.1307 9C21.2074 8.15625 21.0028 7.49574 20.517 7.01847C20.0313 6.53267 19.2131 6.28977 18.0625 6.28977C17.3295 6.28977 16.7159 6.375 16.2216 6.54545C15.7358 6.71591 15.3565 6.95028 15.0838 7.24858C14.8196 7.54687 14.6534 7.89204 14.5852 8.28409C14.5085 8.59091 14.5128 8.87216 14.598 9.12784C14.6918 9.375 14.8665 9.60085 15.1222 9.8054C15.3864 10.0099 15.7315 10.1932 16.1577 10.3551C16.5923 10.517 17.108 10.6619 17.7045 10.7898L19.75 11.25C21.1477 11.5568 22.3196 11.9616 23.2656 12.4645C24.2202 12.9588 24.9702 13.5469 25.5156 14.2287C26.0611 14.9105 26.419 15.6733 26.5895 16.517C26.7685 17.3608 26.7727 18.2812 26.6023 19.2784C26.3125 21 25.6435 22.4574 24.5952 23.6506C23.5469 24.8438 22.179 25.7514 20.4915 26.3736C18.804 26.9957 16.8523 27.3068 14.6364 27.3068C12.3693 27.3068 10.4432 26.9702 8.85795 26.2969C7.28125 25.6151 6.1392 24.5753 5.43182 23.1776C4.73295 21.7713 4.5625 19.9773 4.92045 17.7955H11.6705C11.5682 18.5966 11.6534 19.2699 11.9261 19.8153C12.1989 20.3608 12.6378 20.7741 13.2429 21.0554C13.848 21.3366 14.6023 21.4773 15.5057 21.4773C16.2727 21.4773 16.929 21.3835 17.4744 21.196C18.0199 21.0085 18.4503 20.7486 18.7656 20.4162C19.081 20.0838 19.2727 19.7045 19.3409 19.2784C19.4091 18.8864 19.3409 18.5369 19.1364 18.2301C18.9318 17.9233 18.5611 17.6463 18.0241 17.3991C17.4872 17.152 16.75 16.9261 15.8125 16.7216L13.3068 16.1591C11.0824 15.6477 9.40341 14.804 8.26989 13.6278C7.13636 12.4517 6.7358 10.8409 7.06818 8.79545C7.34091 7.125 8.02699 5.66761 9.12642 4.4233C10.2344 3.17045 11.6406 2.19886 13.3452 1.50852C15.0582 0.809658 16.9545 0.460226 19.0341 0.460226C21.1477 0.460226 22.9162 0.81392 24.3395 1.52131C25.7713 2.22869 26.7983 3.22159 27.4205 4.5C28.0511 5.77841 28.2216 7.27841 27.9318 9H21.1307ZM39.5334 0.818181L35.1868 27H28.13L32.4766 0.818181H39.5334ZM48.1403 27.358C46.0437 27.358 44.305 26.9574 42.9244 26.1562C41.5437 25.3466 40.5721 24.1875 40.0096 22.679C39.4471 21.1619 39.3448 19.3466 39.7028 17.233C40.0437 15.2045 40.7468 13.4318 41.8121 11.9148C42.886 10.3977 44.2369 9.21733 45.8647 8.37358C47.5011 7.52983 49.3335 7.10795 51.3619 7.10795C52.8448 7.10795 54.1445 7.33807 55.261 7.7983C56.386 8.25852 57.3022 8.92756 58.0096 9.8054C58.717 10.6832 59.1942 11.7443 59.4414 12.9886C59.6971 14.2244 59.6971 15.6222 59.4414 17.1818L59.1857 18.8182H41.646L42.2596 14.9318H53.305C53.3903 14.3693 53.3349 13.875 53.1389 13.4489C52.9514 13.0142 52.6488 12.6776 52.2312 12.4389C51.8221 12.1918 51.3278 12.0682 50.7482 12.0682C50.1687 12.0682 49.6232 12.1918 49.1119 12.4389C48.609 12.6861 48.1786 13.0312 47.8207 13.4744C47.4712 13.9176 47.2369 14.4375 47.1175 15.0341L46.3505 19.125C46.2482 19.7557 46.2866 20.3182 46.4656 20.8125C46.6445 21.3068 46.9556 21.6946 47.3988 21.9759C47.842 22.2571 48.413 22.3977 49.1119 22.3977C49.5891 22.3977 50.0408 22.3338 50.467 22.206C50.9016 22.0696 51.2852 21.8736 51.6175 21.6179C51.9585 21.3537 52.2312 21.0341 52.4357 20.6591H58.8789C58.4187 22.0227 57.69 23.2074 56.6928 24.2131C55.7042 25.2102 54.4854 25.9858 53.0366 26.5398C51.5962 27.0852 49.9641 27.358 48.1403 27.358ZM70.0426 27.358C67.946 27.358 66.2074 26.9574 64.8267 26.1562C63.446 25.3466 62.4744 24.1875 61.9119 22.679C61.3494 21.1619 61.2472 19.3466 61.6051 17.233C61.946 15.2045 62.6491 13.4318 63.7145 11.9148C64.7884 10.3977 66.1392 9.21733 67.767 8.37358C69.4034 7.52983 71.2358 7.10795 73.2642 7.10795C74.7472 7.10795 76.0469 7.33807 77.1634 7.7983C78.2884 8.25852 79.2045 8.92756 79.9119 9.8054C80.6193 10.6832 81.0966 11.7443 81.3438 12.9886C81.5994 14.2244 81.5994 15.6222 81.3438 17.1818L81.0881 18.8182H63.5483L64.1619 14.9318H75.2074C75.2926 14.3693 75.2372 13.875 75.0412 13.4489C74.8537 13.0142 74.5511 12.6776 74.1335 12.4389C73.7244 12.1918 73.2301 12.0682 72.6506 12.0682C72.071 12.0682 71.5256 12.1918 71.0142 12.4389C70.5114 12.6861 70.081 13.0312 69.723 13.4744C69.3736 13.9176 69.1392 14.4375 69.0199 15.0341L68.2528 19.125C68.1506 19.7557 68.1889 20.3182 68.3679 20.8125C68.5469 21.3068 68.858 21.6946 69.3011 21.9759C69.7443 22.2571 70.3153 22.3977 71.0142 22.3977C71.4915 22.3977 71.9432 22.3338 72.3693 22.206C72.804 22.0696 73.1875 21.8736 73.5199 21.6179C73.8608 21.3537 74.1335 21.0341 74.3381 20.6591H80.7812C80.321 22.0227 79.5923 23.2074 78.5952 24.2131C77.6065 25.2102 76.3878 25.9858 74.9389 26.5398C73.4986 27.0852 71.8665 27.358 70.0426 27.358ZM82.4847 27L86.8313 0.818181H98.1325C100.076 0.818181 101.712 1.2017 103.042 1.96875C104.371 2.73579 105.326 3.81392 105.905 5.20312C106.485 6.59233 106.621 8.21591 106.314 10.0739C106.007 11.9659 105.326 13.598 104.269 14.9702C103.221 16.3338 101.882 17.3864 100.255 18.1278C98.6353 18.8608 96.82 19.2273 94.8086 19.2273H88.0586L88.979 13.7045H94.2972C95.1495 13.7045 95.8995 13.5597 96.5472 13.2699C97.195 12.9716 97.7191 12.554 98.1197 12.017C98.5202 11.4716 98.7802 10.8239 98.8995 10.0739C99.0188 9.32386 98.9634 8.68466 98.7333 8.15625C98.5117 7.61932 98.1282 7.21023 97.5827 6.92898C97.0458 6.6392 96.3597 6.49432 95.5245 6.49432H93.0188L89.5927 27H82.4847ZM117.564 0.818181L113.218 27H106.11L110.456 0.818181H117.564ZM143.586 0.818181L139.24 27H133.308L126.149 13.2443H125.995L123.694 27H116.586L120.933 0.818181H126.967L134.024 14.5227H134.228L136.478 0.818181H143.586Z" fill="white"/>
</g>
<defs>
<filter id="filter0_d_415_3" x="0.383545" y="0.460449" width="147.203" height="34.8975" filterUnits="userSpaceOnUse" color-interpolation-filters="sRGB">
<feFlood flood-opacity="0" result="BackgroundImageFix"/>
<feColorMatrix in="SourceAlpha" type="matrix" values="0 0 0 0 0 0 0 0 0 0 0 0 0 0 0 0 0 0 127 0" result="hardAlpha"/>
<feOffset dy="4"/>
<feGaussianBlur stdDeviation="2"/>
<feComposite in2="hardAlpha" operator="out"/>
<feColorMatrix type="matrix" values="0 0 0 0 0 0 0 0 0 0 0 0 0 0 0 0 0 0 0.25 0"/>
<feBlend mode="normal" in2="BackgroundImageFix" result="effect1_dropShadow_415_3"/>
<feBlend mode="normal" in="SourceGraphic" in2="effect1_dropShadow_415_3" result="shape"/>
</filter>
</defs>
</svg>
