<svg width="121" height="35" viewBox="0 0 121 35" fill="none" xmlns="http://www.w3.org/2000/svg">
<path d="M15.4886 7.36364C15.3352 6.06818 14.7131 5.0625 13.6222 4.34659C12.5313 3.63068 11.1932 3.27273 9.60795 3.27273C8.44886 3.27273 7.43466 3.46023 6.56534 3.83523C5.70455 4.21023 5.03125 4.72585 4.54545 5.3821C4.06818 6.03835 3.82955 6.78409 3.82955 7.61932C3.82955 8.31818 3.99574 8.91903 4.32812 9.42188C4.66903 9.91619 5.10369 10.3295 5.6321 10.6619C6.16051 10.9858 6.71449 11.2543 7.29403 11.4673C7.87358 11.6719 8.40625 11.8381 8.89205 11.9659L11.5511 12.6818C12.233 12.8608 12.9915 13.108 13.8267 13.4233C14.6705 13.7386 15.4759 14.169 16.2429 14.7145C17.0185 15.2514 17.6577 15.9418 18.1605 16.7855C18.6634 17.6293 18.9148 18.6648 18.9148 19.892C18.9148 21.3068 18.544 22.5852 17.8026 23.7273C17.0696 24.8693 15.9957 25.777 14.581 26.4503C13.1747 27.1236 11.4659 27.4602 9.45455 27.4602C7.57955 27.4602 5.95597 27.1577 4.58381 26.5526C3.22017 25.9474 2.14631 25.1037 1.36222 24.0213C0.586648 22.9389 0.147727 21.6818 0.0454546 20.25H3.31818C3.40341 21.2386 3.7358 22.0568 4.31534 22.7045C4.90341 23.3437 5.64489 23.821 6.53977 24.1364C7.44318 24.4432 8.41477 24.5966 9.45455 24.5966C10.6648 24.5966 11.7514 24.4006 12.7145 24.0085C13.6776 23.608 14.4403 23.054 15.0028 22.3466C15.5653 21.6307 15.8466 20.7955 15.8466 19.8409C15.8466 18.9716 15.6037 18.2642 15.1179 17.7188C14.6321 17.1733 13.9929 16.7301 13.2003 16.3892C12.4077 16.0483 11.5511 15.75 10.6307 15.4943L7.40909 14.5739C5.36364 13.9858 3.74432 13.1463 2.55114 12.0554C1.35795 10.9645 0.761364 9.53693 0.761364 7.77273C0.761364 6.30682 1.15767 5.02841 1.95028 3.9375C2.75142 2.83807 3.82528 1.98579 5.17188 1.38068C6.52699 0.767045 8.03977 0.460226 9.71023 0.460226C11.3977 0.460226 12.8977 0.762783 14.2102 1.3679C15.5227 1.96449 16.5625 2.78267 17.3295 3.82244C18.1051 4.86221 18.5142 6.04261 18.5568 7.36364H15.4886ZM26.7354 0.818181V27H23.7184V0.818181H26.7354ZM40.4943 27.4091C38.6023 27.4091 36.9702 26.9915 35.598 26.1562C34.2344 25.3125 33.1818 24.1364 32.4403 22.6278C31.7074 21.1108 31.3409 19.3466 31.3409 17.3352C31.3409 15.3239 31.7074 13.5511 32.4403 12.017C33.1818 10.4744 34.2131 9.27273 35.5341 8.41193C36.8636 7.54261 38.4148 7.10795 40.1875 7.10795C41.2102 7.10795 42.2202 7.27841 43.2173 7.61932C44.2145 7.96023 45.1222 8.5142 45.9403 9.28125C46.7585 10.0398 47.4105 11.0455 47.8963 12.2983C48.3821 13.5511 48.625 15.0937 48.625 16.9261V18.2045H33.4886V15.5966H45.5568C45.5568 14.4886 45.3352 13.5 44.892 12.6307C44.4574 11.7614 43.8352 11.0753 43.0256 10.5724C42.2244 10.0696 41.2784 9.81818 40.1875 9.81818C38.9858 9.81818 37.946 10.1165 37.0682 10.7131C36.1989 11.3011 35.5298 12.0682 35.0611 13.0142C34.5923 13.9602 34.358 14.9744 34.358 16.0568V17.7955C34.358 19.2784 34.6136 20.5355 35.125 21.5668C35.6449 22.5895 36.3651 23.3693 37.2855 23.9062C38.206 24.4347 39.2756 24.6989 40.4943 24.6989C41.2869 24.6989 42.0028 24.5881 42.642 24.3665C43.2898 24.1364 43.848 23.7955 44.3168 23.3438C44.7855 22.8835 45.1477 22.3125 45.4034 21.6307L48.3182 22.4489C48.0114 23.4375 47.4957 24.3068 46.7713 25.0568C46.0469 25.7983 45.152 26.3778 44.0866 26.7955C43.0213 27.2045 41.8239 27.4091 40.4943 27.4091ZM61.4474 27.4091C59.5554 27.4091 57.9233 26.9915 56.5511 26.1562C55.1875 25.3125 54.1349 24.1364 53.3935 22.6278C52.6605 21.1108 52.294 19.3466 52.294 17.3352C52.294 15.3239 52.6605 13.5511 53.3935 12.017C54.1349 10.4744 55.1662 9.27273 56.4872 8.41193C57.8168 7.54261 59.3679 7.10795 61.1406 7.10795C62.1634 7.10795 63.1733 7.27841 64.1705 7.61932C65.1676 7.96023 66.0753 8.5142 66.8935 9.28125C67.7116 10.0398 68.3636 11.0455 68.8494 12.2983C69.3352 13.5511 69.5781 15.0937 69.5781 16.9261V18.2045H54.4418V15.5966H66.5099C66.5099 14.4886 66.2884 13.5 65.8452 12.6307C65.4105 11.7614 64.7884 11.0753 63.9787 10.5724C63.1776 10.0696 62.2315 9.81818 61.1406 9.81818C59.9389 9.81818 58.8991 10.1165 58.0213 10.7131C57.152 11.3011 56.483 12.0682 56.0142 13.0142C55.5455 13.9602 55.3111 14.9744 55.3111 16.0568V17.7955C55.3111 19.2784 55.5668 20.5355 56.0781 21.5668C56.598 22.5895 57.3182 23.3693 58.2386 23.9062C59.1591 24.4347 60.2287 24.6989 61.4474 24.6989C62.2401 24.6989 62.956 24.5881 63.5952 24.3665C64.2429 24.1364 64.8011 23.7955 65.2699 23.3438C65.7386 22.8835 66.1009 22.3125 66.3565 21.6307L69.2713 22.4489C68.9645 23.4375 68.4489 24.3068 67.7244 25.0568C67 25.7983 66.1051 26.3778 65.0398 26.7955C63.9744 27.2045 62.777 27.4091 61.4474 27.4091ZM74.1676 34.3636V7.36364H77.0824V10.483H77.4403C77.6619 10.142 77.9688 9.70739 78.3608 9.17898C78.7614 8.64205 79.3324 8.16477 80.0739 7.74716C80.8239 7.32102 81.8381 7.10795 83.1165 7.10795C84.7699 7.10795 86.2273 7.52131 87.4886 8.34801C88.75 9.17472 89.7344 10.3466 90.4418 11.8636C91.1491 13.3807 91.5028 15.1705 91.5028 17.233C91.5028 19.3125 91.1491 21.1151 90.4418 22.6406C89.7344 24.1577 88.7543 25.3338 87.5014 26.169C86.2486 26.9957 84.804 27.4091 83.1676 27.4091C81.9063 27.4091 80.8963 27.2003 80.1378 26.7827C79.3793 26.3565 78.7955 25.875 78.3864 25.3381C77.9773 24.7926 77.6619 24.3409 77.4403 23.983H77.1847V34.3636H74.1676ZM77.1335 17.1818C77.1335 18.6648 77.3509 19.973 77.7855 21.1065C78.2202 22.2315 78.8551 23.1136 79.6903 23.7528C80.5256 24.3835 81.5483 24.6989 82.7585 24.6989C84.0199 24.6989 85.0724 24.3665 85.9162 23.7017C86.7685 23.0284 87.4077 22.125 87.8338 20.9915C88.2685 19.8494 88.4858 18.5795 88.4858 17.1818C88.4858 15.8011 88.2727 14.5568 87.8466 13.4489C87.429 12.3324 86.794 11.4503 85.9418 10.8026C85.098 10.1463 84.0369 9.81818 82.7585 9.81818C81.5313 9.81818 80.5 10.1293 79.6648 10.7514C78.8295 11.3651 78.1989 12.2259 77.7727 13.3338C77.3466 14.4332 77.1335 15.7159 77.1335 17.1818ZM96.1051 27V7.36364H99.1222V27H96.1051ZM97.6392 4.09091C97.0511 4.09091 96.544 3.89062 96.1179 3.49006C95.7003 3.08949 95.4915 2.60795 95.4915 2.04545C95.4915 1.48295 95.7003 1.00142 96.1179 0.600851C96.544 0.200284 97.0511 0 97.6392 0C98.2273 0 98.7301 0.200284 99.1477 0.600851C99.5739 1.00142 99.7869 1.48295 99.7869 2.04545C99.7869 2.60795 99.5739 3.08949 99.1477 3.49006C98.7301 3.89062 98.2273 4.09091 97.6392 4.09091ZM107.665 15.1875V27H104.648V7.36364H107.563V10.4318H107.819C108.279 9.43466 108.978 8.63352 109.915 8.02841C110.853 7.41477 112.063 7.10795 113.546 7.10795C114.875 7.10795 116.039 7.38068 117.036 7.92614C118.033 8.46307 118.809 9.28125 119.363 10.3807C119.917 11.4716 120.194 12.8523 120.194 14.5227V27H117.176V14.7273C117.176 13.1847 116.776 11.983 115.975 11.1222C115.174 10.2528 114.074 9.81818 112.676 9.81818C111.713 9.81818 110.853 10.027 110.094 10.4446C109.344 10.8622 108.752 11.4716 108.317 12.2727C107.882 13.0739 107.665 14.0455 107.665 15.1875Z" fill="black"/>
</svg>
